# xmcd CD database file
#
# Track frame offsets:
#	150
#	17785
#	41102
#	67565
#	100065
#	105742
#	128765
#	149657
#	166260
#	199085
#
# Disc length: 3412 seconds
#
# Revision: 2
# Processed by: cddbd v1.5.2PL0 Copyright (c) Steve Scherf et al.
# Submitted via: CDex 1.51
#
DISCID=840d520a
DTITLE=Al Kooper - Soul Of A Man: Al Kooper Live [CD2]
DYEAR=1994
DGENRE=Blues
TTITLE0=I Can't Quit Her
TTITLE1=I Want A Little Girl
TTITLE2=My Days Are Numbered
TTITLE3=I Love You More Than You'll Ever Know
TTITLE4=Spoken Intro
TTITLE5=Made In The Shade
TTITLE6=Downtime
TTITLE7=Violets Of Dawn
TTITLE8=Albert's Shuffle
TTITLE9=Closing Medley
EXTD=YEAR: 1994
EXTT0=Child Is The Father to The Man (kooper,levine)
EXTT1=Rekooperators (moll,mencher)
EXTT2=Child Is The Father To The Man (kooper)
EXTT3=Child Is The Father To The Man (kooper)
EXTT4=
EXTT5=Rekooperators (van zant)
EXTT6=Rekooperators (kooper, vivino)
EXTT7=Blues Project (Andersen)
EXTT8=Rekooperators (kooper, bloomfield)
EXTT9=Rekooperators a) You Can't Always Get What You Want (jagger, richards) b) Season Of The Witch (donovan) c) Al's Witch Hunt (kooper)
PLAYORDER=
